# xmcd CD database file
#
# Track frame offsets:
#	182
#	22077
#	40315
#
# Disc length: 875 seconds
#
# Revision: 5
# Processed by: cddbd v1.5.2PL0 Copyright (c) Steve Scherf et al.
# Submitted via: CDex 1.70beta2
#
DISCID=20036903
DTITLE=Eros Ramazzotti and Tina Turner - Cose Della Vita - Maxi CD
DYEAR=1997
DGENRE=Pop
TTITLE0=Cose Della Vita - Can't Stop Thinking Of You [1997]
TTITLE1=Taxi Story [1990]
TTITLE2=Un grosso no [1993]
EXTD=YEAR: 1997
EXTT0=
EXTT1=
EXTT2=
PLAYORDER=
